<?xml version="1.0" encoding="UTF-8"?>
<svg width="1280" height="720" viewBox="0 0 1280 720" version="1.1" xmlns="http://www.w3.org/2000/svg">
  <g transform="matrix(0.70293938,0,0,0.71497235,1.5471908e-4,80.684136)" fill="#965e30">
    <path d="m 2777.95,2660.09 c -50.36,-86.4 -90.93,-179.43 -122.76,-276.68 -15.05,-46.17 -28.34,-93.39 -39.18,-141.32 v -0.34 c -11.19,47.93 -24.13,95.13 -39.52,141.66 -31.49,97.25 -72.06,190.28 -122.42,276.68 -79.76,136.41 -179.45,245.54 -294.88,323.89 -0.24,0.17 -0.49,0.31 -0.74,0.48 25.58,5.63 51.15,12.33 76.6,21.28 173.42,60.99 309.29,192.33 380.88,357.39 71.58,-165.05 207.45,-296.39 380.89,-357.39 25.49,-8.97 51.09,-15.68 76.7,-21.32 -0.23,-0.15 -0.47,-0.29 -0.69,-0.44 -115.78,-78.35 -215.47,-187.48 -294.88,-323.89z"/>
  </g>
  <text x="605" y="420" font-family="Sephir" font-size="194" fill="#965e30">Home</text>
</svg>
